<svg width="264" height="132" viewBox="0 0 264 132" fill="none" xmlns="http://www.w3.org/2000/svg">
  <!-- H (blue) -->
  <g fill="#0f9bd7">
    <rect x="10" y="30" width="16" height="62" rx="4"/>
    <rect x="50" y="30" width="16" height="62" rx="4"/>
    <rect x="10" y="53" width="56" height="16" rx="4"/>
  </g>

  <!-- Butterfly (the "C") — yellow upper wings, teal lower wings -->
  <g transform="translate(97,61)">
    <path d="M1 -2 C-7 -28 -27 -23 -22 -6 C-18 5 -6 4 1 -2 Z" fill="#f7b418"/>
    <path d="M1 -2 C11 -26 30 -17 23 -3 C19 5 8 3 1 -2 Z" fill="#f9c23c"/>
    <path d="M1 2 C-7 26 -25 21 -20 6 C-16 -4 -6 -3 1 2 Z" fill="#22b4c2"/>
    <path d="M1 2 C11 24 28 16 22 3 C18 -4 8 -2 1 2 Z" fill="#3cc4d0"/>
    <circle cx="1.5" cy="0" r="3" fill="#0f9bd7"/>
  </g>

  <!-- G (pink) — thick ring open to the right with the inward bar -->
  <path d="M197 34 A29 29 0 1 0 197 88" fill="none" stroke="#e6457f" stroke-width="16" stroke-linecap="round"/>
  <rect x="182" y="53" width="24" height="16" rx="3" fill="#e6457f"/>

  <!-- TM -->
  <text x="220" y="42" font-family="Arial, sans-serif" font-size="11" fill="#9aa0b2">™</text>

  <!-- tagline -->
  <text x="120" y="122" text-anchor="middle" font-family="Outfit, 'Segoe UI', Arial, sans-serif" font-size="18" font-weight="500" letter-spacing="0.4" fill="#e5e7eb">adding life to years</text>
</svg>
